<svg width="698" height="185" viewBox="0 0 698 185" fill="none" xmlns="http://www.w3.org/2000/svg">
<path d="M697.88 102.48C696.56 104.76 694.88 108 693.92 111C690.68 121.8 683.84 137.76 672.92 151.08C661.52 165 647.12 176.04 624.56 184.92L610.4 172.32C634.88 164.88 648.2 154.44 658.76 142.56C666.92 133.2 673.88 118.8 675.8 109.92H635.36L640.88 96.2401C646.16 96.2401 671.36 96.2401 675.08 96.2401C678.8 96.2401 682.88 95.7601 685.52 94.8001L697.88 102.48ZM658.76 83.4001C655.88 87.6001 652.76 93.1201 651.44 95.6401C643.28 110.16 629 127.08 611.72 138.84L598.28 128.88C619.28 116.04 629.84 100.56 635.72 90.2401C637.52 87.3601 640.04 81.8401 641.12 77.6401L658.76 83.4001Z" fill="#0F1419"/>
<path d="M498.92 85.8C507.2 91.44 522.8 103.92 529.88 111.24L517.64 123.72C511.4 117 496.28 103.92 487.52 97.92L498.92 85.8ZM483.8 165.72C502.64 163.08 518.12 156.96 529.76 150.12C550.28 137.88 565.88 119.64 573.56 103.44L582.8 120.24C573.8 136.56 557.84 153.12 538.52 164.76C526.28 172.08 510.8 178.68 494 181.56L483.8 165.72Z" fill="#0F1419"/>
<path d="M446.24 83.8801C446 87.2401 445.88 91.0801 445.88 96.0001C445.88 102.12 445.88 113.76 445.88 119.64C445.88 145.56 440.84 156.6 431.84 166.44C423.92 175.2 411.56 180.96 402.8 183.84L390.2 170.52C402.2 167.76 411.8 163.2 419.12 155.4C427.28 146.4 428.96 137.4 428.96 118.68C428.96 112.68 428.96 101.16 428.96 96.0001C428.96 91.0801 428.6 87.2401 428.12 83.8801H446.24ZM390.68 84.9601C390.44 87.7201 390.2 90.3601 390.2 94.0801C390.2 99.3601 390.2 127.92 390.2 134.64C390.2 137.64 390.44 142.32 390.68 145.08H373.16C373.4 142.92 373.76 138.24 373.76 134.52C373.76 127.68 373.76 99.3601 373.76 94.0801C373.76 91.9201 373.64 87.7201 373.28 84.9601H390.68Z" fill="#0F1419"/>
<path d="M273.44 104.76C280.4 105.48 287.36 105.84 294.44 105.84C309.2 105.84 324.2 104.52 336.68 102V116.88C324.08 118.8 309.08 119.76 294.44 119.76C287.48 119.76 280.64 119.52 273.56 119.04L273.44 104.76ZM319.16 84.4801C318.68 86.8801 318.44 89.7601 318.32 92.2801C318.08 96.2401 317.96 104.4 317.96 113.16C317.96 135.24 319.88 150.72 319.88 162.12C319.88 174.72 313.64 184.08 296.36 184.08C279.8 184.08 269.48 177 269.48 164.4C269.48 152.28 279.68 143.88 296 143.88C318.56 143.88 333.2 155.16 342.44 163.8L334.4 176.4C320.48 163.44 308.48 155.52 294.8 155.52C288.08 155.52 283.4 158.28 283.4 162.84C283.4 167.76 288.32 169.8 294.56 169.8C302 169.8 304.52 165.96 304.52 158.88C304.52 150.6 302.96 130.44 302.96 113.16C302.96 104.04 302.84 96.0001 302.84 92.4001C302.84 90.6001 302.36 86.8801 302 84.4801H319.16ZM260.6 85.8001C259.64 88.3201 258.08 94.3201 257.72 96.4801C255.92 104.52 251.96 131.04 251.96 142.92C251.96 145.32 252.08 148.32 252.56 150.72C254.12 146.52 256.04 142.44 257.84 138.48L265.28 144.36C261.92 154.2 257.96 166.44 256.52 173.04C256.16 174.72 255.92 177.24 255.92 178.56C255.92 179.76 256.04 181.8 256.16 183.6L242.6 184.56C240.2 176.16 237.92 162.48 237.92 146.16C237.92 128.04 241.52 105.36 242.84 96.1201C243.32 92.8801 243.92 88.2001 243.92 84.3601L260.6 85.8001ZM329 79.6801C331.16 84.4801 333.92 91.4401 335.24 96.1201L326.96 98.8801C325.16 93.6001 323.12 87.1201 320.72 82.2001L329 79.6801ZM341.36 75.8401C343.64 80.6401 346.4 87.6001 347.84 92.1601L339.56 94.9201C337.88 89.6401 335.6 83.2801 333.2 78.4801L341.36 75.8401Z" fill="#0F1419"/>
<path d="M135.92 86.5201C137.96 86.7601 141.68 87.0001 145.76 87.0001C152.12 87.0001 178.88 86.6401 186.8 86.1601C189.56 85.9201 193.16 85.3201 195.44 84.8401L203.48 95.4001C201.2 96.4801 198.44 98.4001 196.76 99.4801C189.92 104.64 178.28 113.76 167.96 121.8C171.8 120.6 176.24 120.12 179.24 120.12C200.36 120.12 214.88 132.6 214.88 149.4C214.88 173.16 194.12 187.08 149.72 183.6L145.52 167.88C178.64 172.2 198.32 165.24 198.32 149.4C198.32 139.92 189.68 132.84 176 132.84C157.28 132.84 144.32 144.72 131.36 157.8L120.08 145.92C136.16 133.68 165.68 109.44 175.16 99.6001C168.68 99.8401 152 100.68 146.24 101.04C143.24 101.28 138.92 101.76 136.28 102.12L135.92 86.5201Z" fill="#0F1419"/>
<path d="M79.6401 85.3201C82.0401 100.32 86.9601 119.4 105.32 136.2L95.6001 150.12C82.4001 135.6 72.8001 115.56 64.5201 89.5201L79.6401 85.3201ZM0.560059 91.3201C2.60006 91.4401 5.12006 91.4401 7.28006 91.3201C18.6801 90.7201 38.7201 88.0801 46.6401 85.3201L51.0801 98.6401C49.4001 99.2401 46.8801 100.2 45.0801 101.28C36.8001 107.4 20.7201 126 20.7201 148.92C20.7201 162.96 29.8401 168.6 41.3601 168.6C68.6001 168.6 76.6401 138.6 65.9601 92.7601L80.1201 115.8C86.7201 148.08 81.0801 184.68 41.0001 184.68C21.8001 184.68 5.24006 174.12 5.24006 152.4C5.24006 132.84 13.4001 118.2 24.6801 104.04C20.0001 104.52 12.3201 105.36 8.84006 105.72C6.32006 106.08 4.40006 106.32 1.64006 106.92L0.560059 91.3201Z" fill="#0F1419"/>
<path d="M72 25C72 38.8071 60.8071 50 47 50C33.1929 50 22 38.8071 22 25C22 11.1929 33.1929 0 47 0C60.8071 0 72 11.1929 72 25Z" fill="#1D8B56"/>
<path d="M194 25C194 38.8071 182.807 50 169 50C155.193 50 144 38.8071 144 25C144 11.1929 155.193 0 169 0C182.807 0 194 11.1929 194 25Z" fill="#808080"/>
<path d="M316 25C316 38.8071 304.807 50 291 50C277.193 50 266 38.8071 266 25C266 11.1929 277.193 0 291 0C304.807 0 316 11.1929 316 25Z" fill="#FFD700"/>
</svg>
